<svg xmlns="http://www.w3.org/2000/svg" width="61.651" height="38.084" viewBox="0 0 61.651 38.084">
  <g id="logo-nav" transform="translate(-105 -9.555)">
    <path id="Path_6" data-name="Path 6" d="M58.569,3.071V35.013H3.083V3.071ZM61.651,0H0V38.084H61.651Z" transform="translate(105 9.555)" fill="#fff"/>
    <path id="Path_27" data-name="Path 27" d="M-25.074-10.413h-2.342v-18.3h2.342Zm25.642,0H-1.761V-22.686q0-1.454.2-3.56h-.056a10.691,10.691,0,0,1-.6,1.773L-9.054-10.413H-10.2L-17.015-24.37a10.247,10.247,0,0,1-.6-1.875h-.056q.112,1.1.112,3.585v12.248h-2.259v-18.3h3.1l6.135,12.758a15.5,15.5,0,0,1,.92,2.194h.084q.6-1.505.962-2.245l6.26-12.707H.567Zm10.374-6.558a7.677,7.677,0,0,1-1.506,5.059,4.98,4.98,0,0,1-4.03,1.805,5.158,5.158,0,0,1-1.924-.306v-2.118a3.48,3.48,0,0,0,1.952.5q3.165,0,3.165-4.912V-28.708h2.342Z" transform="translate(144 47.555)" fill="#fff"/>
  </g>
</svg>
